HIERARCHY
ROOT Hips
{
	OFFSET	0.00	0.00	0.00
	CHANNELS 6 Xposition Yposition Zposition Zrotation Xrotation Yrotation
	JOINT LeftUpLeg
	{
		OFFSET	 0.126116	-0.065224	 0.014019
		CHANNELS 3 Zrotation Xrotation Yrotation
		JOINT LeftLeg
		{
			OFFSET	 0.000000	 0.569914	 0.000000
			CHANNELS 3 Zrotation Xrotation Yrotation
			JOINT LeftFoot
			{
				OFFSET	 0.000000	 0.544423	 0.000000
				CHANNELS 3 Zrotation Xrotation Yrotation
				JOINT LeftToeBase
				{
					OFFSET	 0.000000	 0.207117	 0.000000
					CHANNELS 3 Zrotation Xrotation Yrotation
					End Site
					{
						OFFSET	 0.000000	 0.207117	 0.000000
					}
				}
			}
		}
	}
	JOINT RightUpLeg
	{
		OFFSET	-0.124023	-0.065224	 0.008373
		CHANNELS 3 Zrotation Xrotation Yrotation
		JOINT RightLeg
		{
			OFFSET	 0.000000	 0.570047	 0.000000
			CHANNELS 3 Zrotation Xrotation Yrotation
			JOINT RightFoot
			{
				OFFSET	 0.000000	 0.544354	 0.000000
				CHANNELS 3 Zrotation Xrotation Yrotation
				JOINT RightToeBase
				{
					OFFSET	 0.000000	 0.207540	 0.000000
					CHANNELS 3 Zrotation Xrotation Yrotation
					End Site
					{
						OFFSET	 0.000000	 0.207540	 0.000000
					}
				}
			}
		}
	}
	JOINT Spine
	{
		OFFSET	 0.000184	 0.117403	 0.007763
		CHANNELS 3 Zrotation Xrotation Yrotation
		JOINT Spine1
		{
			OFFSET	 0.000000	 0.137269	 0.000000
			CHANNELS 3 Zrotation Xrotation Yrotation
			JOINT Spine2
			{
				OFFSET	 0.000000	 0.156879	 0.000000
				CHANNELS 3 Zrotation Xrotation Yrotation
				JOINT LeftShoulder
				{
					OFFSET	 0.080501	 0.160143	 0.002496
					CHANNELS 3 Zrotation Xrotation Yrotation
					JOINT LeftArm
					{
						OFFSET	 0.000000	 0.164363	 0.000000
						CHANNELS 3 Zrotation Xrotation Yrotation
						JOINT LeftForeArm
						{
							OFFSET	 0.000000	 0.364576	 0.000000
							CHANNELS 3 Zrotation Xrotation Yrotation
							JOINT LeftHand
							{
								OFFSET	 0.000000	 0.360812	 0.000000
								CHANNELS 3 Zrotation Xrotation Yrotation
								JOINT LeftHandIndex1
								{
									OFFSET	 0.000000	 0.086006	 0.000000
									CHANNELS 3 Zrotation Xrotation Yrotation
									JOINT LeftHandIndex2
									{
										OFFSET	 0.000000	 0.047237	 0.000000
										CHANNELS 3 Zrotation Xrotation Yrotation
										JOINT LeftHandIndex3
										{
											OFFSET	-0.004284	 0.038165	 0.000551
											CHANNELS 3 Zrotation Xrotation Yrotation
											End Site
											{
												OFFSET	-0.004284	 0.038165	 0.000551
											}
										}
									}
								}
							}
						}
					}
				}
				JOINT Neck
				{
					OFFSET	 0.000000	 0.176489	 0.000000
					CHANNELS 3 Zrotation Xrotation Yrotation
					JOINT Head
					{
						OFFSET	 0.000000	 0.077941	 0.001747
						CHANNELS 3 Zrotation Xrotation Yrotation
						End Site
						{
							OFFSET	 0.000000	 0.077941	 0.001747
						}
					}
				}
				JOINT RightShoulder
				{
					OFFSET	-0.080363	 0.159706	-0.000306
					CHANNELS 3 Zrotation Xrotation Yrotation
					JOINT RightArm
					{
						OFFSET	 0.000000	 0.164196	 0.000000
						CHANNELS 3 Zrotation Xrotation Yrotation
						JOINT RightForeArm
						{
							OFFSET	 0.000000	 0.365611	 0.000000
							CHANNELS 3 Zrotation Xrotation Yrotation
							JOINT RightHand
							{
								OFFSET	 0.000000	 0.360648	 0.000000
								CHANNELS 3 Zrotation Xrotation Yrotation
								JOINT RightHandIndex1
								{
									OFFSET	 0.000000	 0.069977	 0.000000
									CHANNELS 3 Zrotation Xrotation Yrotation
									JOINT RightHandIndex2
									{
										OFFSET	 0.000000	 0.052305	 0.000000
										CHANNELS 3 Zrotation Xrotation Yrotation
										JOINT RightHandIndex3
										{
											OFFSET	 0.009002	 0.042196	 0.000782
											CHANNELS 3 Zrotation Xrotation Yrotation
											End Site
											{
												OFFSET	 0.009002	 0.042196	 0.000782
											}
										}
									}
								}
							}
						}
					}
				}
			}
		}
	}
}
MOTION
Frames:    6
Frame Time: 0.03333334
-0.001452	 1.269557	-0.002984	 0.118415	 3.205372	 178.777600	-177.898700	 3.540455	-16.530080	 3.203929	-15.806640	 2.898886	-5.353710	 69.703480	 6.819139	 1.331492	 28.938720	-2.729976	 177.773800	 4.388468	 20.022200	-5.019742	-16.101610	-6.451593	 2.424866	 69.984030	-1.683572	-1.305367	 28.580680	 2.602989	-0.735613	 2.935412	-11.311490	-2.055336	 4.574571	-6.214584	-1.556152	-4.698595	 14.112110	-113.447100	 5.122847	 92.999350	 7.821706	 51.825970	 36.964660	 11.199380	-0.566455	-0.404271	-12.310850	-9.829571	-53.054880	-6.580301	 5.266122	 0.000000	 0.000000	 0.000000	 0.000000	 0.000000	 0.000000	 0.000000	 3.836072	-0.658198	-0.252040	 3.264508	 0.572340	 5.184296	 114.204700	-4.421159	-88.487720	-59.521840	 1.076974	 42.465700	-92.663400	-2.243499	-1.922264	-19.940790	-18.807960	 5.983028	-0.359780	 10.582400	 0.744568	 11.977790	 9.317274	-2.096057	-8.359142	 3.150317	 0.104226
-0.001561	 1.269709	 0.004930	 0.166540	 3.206034	 178.718300	-177.563800	 3.862854	-18.334930	 3.318936	-16.343670	 2.904429	-5.465015	 69.813320	 6.924760	 1.331492	 28.938720	-2.729976	 177.587800	 4.727975	 21.742930	-4.979430	-15.979250	-6.483652	 2.133728	 69.520420	-1.512117	-1.305384	 28.580790	 2.598469	-0.654071	 2.678558	-12.362570	-2.074777	 5.397815	-6.137724	-1.467290	-5.829520	 13.882660	-113.447300	 5.113268	 92.997260	 7.055777	 51.664210	 37.684720	 11.305870	-0.551669	-1.215470	-11.282850	-10.717460	-53.962450	-6.580301	 5.266122	 0.000000	 0.000000	 0.000000	 0.000000	 0.000000	 0.000000	 0.000000	 3.851667	-0.693980	-0.256891	 3.329581	 0.469700	 5.099036	 114.201900	-4.402160	-88.501460	-58.454580	 1.256976	 41.068970	-94.478160	-2.223681	-1.181251	-23.308760	-19.535250	 4.818521	-0.359777	 10.582310	 0.744568	 11.977790	 9.317179	-2.096038	-8.359140	 3.150267	 0.104231
-0.001537	 1.269863	 0.012807	 0.224388	 3.208804	 178.634100	-177.203600	 4.097161	-20.170550	 3.403585	-16.736960	 2.891284	-5.534003	 69.844510	 6.993568	 1.331492	 28.938720	-2.729976	 177.425700	 5.033832	 23.483180	-4.922300	-15.805540	-6.530065	 1.792807	 69.050190	-1.317786	-1.305409	 28.580930	 2.592022	-0.568416	 2.418301	-13.848710	-2.097853	 6.226674	-6.009448	-1.380330	-6.980156	 13.523030	-113.447500	 5.099610	 92.994250	 6.241559	 51.507460	 38.473530	 11.726760	-0.544216	-2.369467	-10.241380	-11.619400	-55.102470	-6.580301	 5.266122	 0.000000	 0.000000	 0.000000	 0.000000	 0.000000	 0.000000	 0.000000	 3.873907	-0.745024	-0.263795	 3.418366	 0.381822	 4.965015	 114.198000	-4.375056	-88.521080	-57.331640	 1.241201	 38.707710	-97.731480	-2.188191	-0.150232	-26.917370	-20.300360	 2.683734	-0.359773	 10.582170	 0.744568	 11.977790	 9.317044	-2.096011	-8.359138	 3.150196	 0.104237
-0.001339	 1.270014	 0.020530	 0.289984	 3.213888	 178.525700	-176.827900	 4.215644	-22.050640	 3.446206	-16.934340	 2.855687	-5.633405	 69.767620	 7.110179	 1.331492	 28.938720	-2.729976	 177.296400	 5.303114	 25.201980	-4.849775	-15.584590	-6.591447	 1.348853	 68.584590	-1.038034	-1.305442	 28.581110	 2.583670	-0.489721	 2.156982	-15.751180	-2.133486	 7.044655	-5.827081	-1.294320	-8.133863	 13.023910	-113.447800	 5.081916	 92.990390	 5.358407	 51.352680	 39.348520	 12.539400	-0.548121	-3.859378	-9.248419	-12.521790	-56.439710	-6.580301	 5.266122	 0.000000	 0.000000	 0.000000	 0.000000	 0.000000	 0.000000	 0.000000	 3.902704	-0.811141	-0.272707	 3.530378	 0.309793	 4.780530	 114.192900	-4.339931	-88.546470	-56.471680	 0.826242	 35.219490	-102.601800	-2.126074	 1.159892	-30.195840	-20.830510	-0.732574	-0.359767	 10.582000	 0.744568	 11.977790	 9.316868	-2.095976	-8.359135	 3.150103	 0.104246
-0.000957	 1.270158	 0.028007	 0.361427	 3.221683	 178.394500	-176.454200	 4.207976	-23.944540	 3.442135	-16.915530	 2.796510	-5.719167	 69.573520	 7.225903	 1.331492	 28.938720	-2.729976	 177.200900	 5.534528	 26.897420	-4.763977	-15.322550	-6.668398	 0.839221	 68.133400	-0.709894	-1.305481	 28.581340	 2.573488	-0.428819	 1.899176	-18.023740	-2.184529	 7.836416	-5.583454	-1.211598	-9.272674	 12.375260	-113.448100	 5.060342	 92.985650	 4.418053	 51.205330	 40.299190	 13.758520	-0.564355	-5.668147	-8.323283	-13.404170	-57.909360	-6.580301	 5.266122	 0.000000	 0.000000	 0.000000	 0.000000	 0.000000	 0.000000	 0.000000	 3.937801	-0.891760	-0.283528	 3.664561	 0.254158	 4.544172	 114.186700	-4.297124	-88.577420	-56.409560	-0.325729	 30.578340	-108.742000	-2.026507	 2.750206	-32.610660	-20.635430	-5.464623	-0.359760	 10.581780	 0.744568	 11.977790	 9.316656	-2.095933	-8.359130	 3.149990	 0.104257
-0.000429	 1.270293	 0.035296	 0.437982	 3.231740	 178.239100	-176.092100	 4.078231	-25.869700	 3.392860	-16.687170	 2.714061	-5.789301	 69.263920	 7.339812	 1.331492	 28.938720	-2.729976	 177.135800	 5.732762	 28.585380	-4.665302	-15.020350	-6.762745	 0.268778	 67.695450	-0.334280	-1.305528	 28.581600	 2.561381	-0.394739	 1.646409	-20.631940	-2.244060	 8.607200	-5.259343	-1.138285	-10.399280	 11.552820	-113.448600	 5.034695	 92.980040	 3.465440	 51.082800	 41.294020	 15.325130	-0.589315	-7.806291	-7.395195	-14.246340	-59.443490	-6.580301	 5.266122	 0.000000	 0.000000	 0.000000	 0.000000	 0.000000	 0.000000	 0.000000	 3.979513	-0.987627	-0.296330	 3.822111	 0.214705	 4.249862	 114.179400	-4.246226	-88.614200	-57.743340	-2.478556	 24.907650	-115.323900	-1.888808	 4.668254	-33.896430	-19.121210	-11.049840	-0.359752	 10.581520	 0.744568	 11.977790	 9.316402	-2.095881	-8.359125	 3.149857	 0.104270
